<?xml version="1.0" encoding="iso-8859-1"?>
<!-- Uploaded to: SVG Repo, www.svgrepo.com, Generator: SVG Repo Mixer Tools -->
<!DOCTYPE svg PUBLIC "-//W3C//DTD SVG 1.1//EN" "http://www.w3.org/Graphics/SVG/1.1/DTD/svg11.dtd">
<svg fill="#6f338f" height="800px" width="800px" version="1.1" id="Capa_1" xmlns="http://www.w3.org/2000/svg" xmlns:xlink="http://www.w3.org/1999/xlink" 
	 viewBox="0 0 369.622 369.622" xml:space="preserve">
<g>
	<path d="M208.811,312.622h-49c-4.411,0-8,3.589-8,8v41c0,4.411,3.589,8,8,8h49c4.411,0,8-3.589,8-8v-41
		C216.811,316.21,213.222,312.622,208.811,312.622z"/>
	<path d="M160.519,76.622h48.584c2.771,0,5.16-1.194,6.558-3.277c1.381-2.06,1.582-4.683,0.551-7.198L190.955,4.615
		C189.77,1.725,187.478,0,184.824,0c-2.663,0-4.964,1.737-6.155,4.643l-25.258,61.49c-1.032,2.517-0.83,5.145,0.555,7.209
		C155.363,75.426,157.752,76.622,160.519,76.622z"/>
	<path d="M302.384,274.3l-16.771-40.962c-2.037-4.969-7.584-8.717-12.902-8.717H96.911c-5.304,0-10.851,3.774-12.901,8.776
		l-16.771,40.837c-1.235,3.011-1.01,6.128,0.616,8.553c1.634,2.436,4.453,3.833,7.734,3.833h218.445c3.295,0,6.118-1.393,7.746-3.82
		C303.393,280.396,303.613,277.297,302.384,274.3z"/>
	<path d="M114.363,189.622h140.895c3.032,0,5.639-1.293,7.151-3.548c1.498-2.232,1.708-5.093,0.579-7.849l-24.91-60.813
		c-1.822-4.441-6.776-7.791-11.523-7.791h-83.488c-4.734,0-9.688,3.376-11.522,7.852l-24.91,60.687
		c-1.136,2.769-0.92,5.648,0.59,7.899C108.742,188.323,111.344,189.622,114.363,189.622z"/>
</g>
</svg>